<svg width="21" height="20" viewBox="0 0 21 20" fill="none" xmlns="http://www.w3.org/2000/svg">
<path fill-rule="evenodd" clip-rule="evenodd" d="M6.9787 4.64449C6.17036 5.45866 5.64786 6.64033 5.43703 8.08283C5.41987 8.20083 5.37759 8.31378 5.31303 8.41405C5.24848 8.51431 5.16316 8.59955 5.06283 8.66401C4.96251 8.72847 4.84951 8.77065 4.73149 8.7877C4.61347 8.80475 4.49316 8.79626 4.3787 8.76283C4.1487 8.69616 4.00453 8.90616 3.93203 9.10116C3.83786 9.35449 3.80953 9.72199 3.9187 10.1303C4.0137 10.4845 4.34953 11.222 4.82703 11.1778C5.01326 11.1605 5.19991 11.2063 5.35696 11.3078C5.51401 11.4094 5.63232 11.5609 5.69286 11.7378C6.53953 14.2145 8.66536 15.8337 10.4995 15.8337C12.3337 15.8337 14.4595 14.2145 15.3062 11.7378C15.3667 11.5603 15.4853 11.4083 15.6429 11.3065C15.8005 11.2047 15.9878 11.1591 16.1745 11.177C16.652 11.2228 16.9887 10.4845 17.0837 10.1303C17.1929 9.72199 17.1645 9.35449 17.0704 9.10116C16.997 8.90532 16.8529 8.69533 16.622 8.76283C16.5075 8.79654 16.3871 8.80527 16.2689 8.7884C16.1508 8.77154 16.0376 8.72949 15.9371 8.66509C15.8366 8.60069 15.7511 8.51545 15.6864 8.41514C15.6217 8.31482 15.5793 8.20178 15.562 8.08366C15.3512 6.64116 14.8287 5.45866 14.0204 4.64533C13.2262 3.84533 12.0912 3.33366 10.4995 3.33366C8.90786 3.33366 7.77286 3.84616 6.9787 4.64449ZM5.7962 3.46949C6.93786 2.32116 8.51786 1.66699 10.4995 1.66699C12.4812 1.66699 14.0604 2.32116 15.2029 3.47033C16.1662 4.43949 16.7695 5.71199 17.0779 7.11449C17.124 7.12283 17.1695 7.13338 17.2145 7.14616C17.9387 7.33949 18.4054 7.90949 18.6329 8.52116C18.8604 9.13449 18.882 9.85866 18.6937 10.562C18.4295 11.5478 17.7229 12.5203 16.692 12.7828C15.5654 15.492 13.0712 17.5003 10.4995 17.5003C7.92786 17.5003 5.43286 15.4903 4.30703 12.782C3.27786 12.5178 2.57286 11.5462 2.3087 10.562C2.12036 9.85866 2.14203 9.13449 2.36953 8.52033C2.59703 7.90949 3.0637 7.33949 3.78786 7.14533C3.83231 7.13366 3.87675 7.12366 3.9212 7.11533C4.22953 5.71199 4.83286 4.43949 5.7962 3.46949Z" fill="white"/>
</svg>
