<svg width="20" height="20" viewBox="0 0 20 20" fill="none" xmlns="http://www.w3.org/2000/svg">
<path d="M5.6877 18.125H14.3119C15.0854 18.125 15.7006 17.4887 15.6174 16.7555C15.0803 12.0312 11.8748 12.1094 11.8748 10C11.8748 7.89062 15.1213 8.00781 15.617 3.24453C15.6951 2.51094 15.0854 1.875 14.3119 1.875H5.6877C4.91426 1.875 4.30606 2.51094 4.38262 3.24453C4.87832 8.00781 8.12481 7.85156 8.12481 10C8.12481 12.1484 4.91934 12.0312 4.38262 16.7555C4.29903 17.4887 4.91426 18.125 5.6877 18.125Z" stroke="white" stroke-linecap="round" stroke-linejoin="round"/>
<path d="M13.41 16.875H6.60651C5.99714 16.875 5.82526 16.1719 6.25261 15.7359C7.28698 14.6875 9.37487 13.9367 9.37487 12.7344V8.75C9.37487 7.97461 7.8905 7.38281 6.97214 6.125C6.82058 5.91758 6.83581 5.625 7.22097 5.625H12.7964C13.1249 5.625 13.196 5.91523 13.0464 6.12305C12.1413 7.38281 10.6249 7.9707 10.6249 8.75V12.7344C10.6249 13.927 12.801 14.5703 13.7655 15.7371C14.1542 16.2074 14.0182 16.875 13.41 16.875Z" fill="white"/>
</svg>
