<svg width="21" height="20" viewBox="0 0 21 20" fill="none" xmlns="http://www.w3.org/2000/svg">
<g clip-path="url(#clip0_298_2787)">
<path d="M19.5 9.199H18.52C17.967 9.199 17.52 9.558 17.52 10C17.52 10.441 17.967 10.799 18.52 10.799H19.5C20.052 10.799 20.5 10.442 20.5 10C20.5 9.559 20.051 9.199 19.5 9.199ZM10.5 4.5C9.7771 4.49776 9.06089 4.63848 8.39259 4.91409C7.72428 5.1897 7.11708 5.59474 6.60591 6.10591C6.09474 6.61708 5.6897 7.22428 5.41409 7.89259C5.13848 8.56089 4.99776 9.2771 5 10C5 13.051 7.449 15.5 10.5 15.5C13.55 15.5 16 13.051 16 10C16 6.949 13.549 4.5 10.5 4.5ZM10.5 14C8.289 14 6.5 12.209 6.5 10C6.5 7.789 8.289 6 10.5 6C11.5609 6 12.5783 6.42143 13.3284 7.17157C14.0786 7.92172 14.5 8.93913 14.5 10C14.5 11.0609 14.0786 12.0783 13.3284 12.8284C12.5783 13.5786 11.5609 14 10.5 14ZM3.5 10C3.5 9.559 3.051 9.199 2.5 9.199H1.5C0.947 9.199 0.5 9.558 0.5 10C0.5 10.441 0.947 10.799 1.5 10.799H2.5C3.051 10.799 3.5 10.441 3.5 10ZM10.5 3C10.941 3 11.299 2.553 11.299 2V1C11.299 0.447 10.941 0 10.5 0C10.059 0 9.699 0.447 9.699 1V2C9.699 2.553 10.058 3 10.5 3ZM10.5 17C10.058 17 9.699 17.447 9.699 18V19C9.699 19.553 10.058 20 10.5 20C10.941 20 11.299 19.553 11.299 19V18C11.299 17.447 10.941 17 10.5 17ZM17.865 3.766C18.256 3.375 18.319 2.805 18.007 2.493C17.695 2.181 17.124 2.245 16.735 2.636L16.035 3.335C15.644 3.726 15.581 4.296 15.893 4.608C16.205 4.92 16.776 4.856 17.166 4.465L17.865 3.766ZM3.834 15.533L3.134 16.234C2.743 16.625 2.68 17.193 2.992 17.505C3.304 17.817 3.875 17.755 4.264 17.364L4.964 16.665C5.355 16.274 5.418 15.704 5.106 15.391C4.794 15.078 4.223 15.144 3.834 15.533ZM4.265 2.635C3.875 2.244 3.304 2.18 2.992 2.492C2.68 2.804 2.744 3.375 3.133 3.766L3.833 4.465C4.224 4.856 4.793 4.92 5.105 4.608C5.417 4.296 5.354 3.725 4.964 3.335L4.265 2.635ZM16.034 16.666L16.734 17.365C17.125 17.756 17.694 17.818 18.006 17.508C18.318 17.196 18.255 16.625 17.864 16.235L17.165 15.536C16.774 15.145 16.204 15.081 15.891 15.393C15.578 15.705 15.643 16.275 16.034 16.666Z" fill="white"/>
</g>
<defs>
<clipPath id="clip0_298_2787">
<rect width="20" height="20" fill="white" transform="translate(0.5)"/>
</clipPath>
</defs>
</svg>
