<svg width="28" height="28" viewBox="0 0 28 28" fill="none" xmlns="http://www.w3.org/2000/svg">
<path fill-rule="evenodd" clip-rule="evenodd" d="M13.9999 3.33317C12.1342 3.33283 10.3011 3.82182 8.68347 4.75134C7.06586 5.68086 5.72034 7.0184 4.78121 8.63044C3.84207 10.2425 3.34217 12.0727 3.33141 13.9383C3.32064 15.8039 3.79938 17.6397 4.71985 19.2625C5.342 18.4539 6.14176 17.7993 7.0573 17.3491C7.97284 16.899 8.97964 16.6654 9.99985 16.6665H17.9999C19.0201 16.6654 20.0269 16.899 20.9424 17.3491C21.8579 17.7993 22.6577 18.4539 23.2799 19.2625C24.2003 17.6397 24.6791 15.8039 24.6683 13.9383C24.6575 12.0727 24.1576 10.2425 23.2185 8.63044C22.2794 7.0184 20.9338 5.68086 19.3162 4.75134C17.6986 3.82182 15.8655 3.33283 13.9999 3.33317ZM24.5905 22.1012C24.7576 21.8834 24.9176 21.6603 25.0705 21.4318C26.5487 19.2354 27.3366 16.6473 27.3332 13.9998C27.3332 6.63584 21.3639 0.666504 13.9999 0.666504C6.63585 0.666504 0.666518 6.63584 0.666518 13.9998C0.662316 16.9288 1.62657 19.7771 3.40918 22.1012L3.40252 22.1252L3.87585 22.6758C5.12636 24.1379 6.67903 25.3113 8.42683 26.1154C10.1746 26.9194 12.076 27.3349 13.9999 27.3332C14.2879 27.3332 14.5741 27.3243 14.8585 27.3065C17.2644 27.1548 19.5834 26.3504 21.5665 24.9798C22.5149 24.3256 23.3745 23.5511 24.1239 22.6758L24.5972 22.1252L24.5905 22.1012ZM13.9999 5.99984C12.939 5.99984 11.9216 6.42127 11.1714 7.17141C10.4213 7.92156 9.99985 8.93897 9.99985 9.99984C9.99985 11.0607 10.4213 12.0781 11.1714 12.8283C11.9216 13.5784 12.939 13.9998 13.9999 13.9998C15.0607 13.9998 16.0781 13.5784 16.8283 12.8283C17.5784 12.0781 17.9999 11.0607 17.9999 9.99984C17.9999 8.93897 17.5784 7.92156 16.8283 7.17141C16.0781 6.42127 15.0607 5.99984 13.9999 5.99984Z" fill="white"/>
</svg>
