<svg width="150" height="150" viewBox="0 0 150 150" fill="none" xmlns="http://www.w3.org/2000/svg">
<path d="M15.625 51.1688C16.275 38.0438 18.2187 29.8562 24.0437 24.0437C29.8562 18.2187 38.0438 16.275 51.1688 15.625M134.375 51.1688C133.725 38.0438 131.781 29.8562 125.956 24.0437C120.144 18.2187 111.956 16.275 98.8312 15.625M98.8312 134.375C111.956 133.725 120.144 131.781 125.956 125.956C131.781 120.144 133.725 111.956 134.375 98.8312M51.1688 134.375C38.0438 133.725 29.8562 131.781 24.0437 125.956C18.2187 120.144 16.275 111.956 15.625 98.8312M109.375 106.25L108.113 100.944C107.599 98.7905 106.523 96.8123 104.994 95.2113C103.466 93.6102 101.54 92.4438 99.4125 91.8312L84.375 87.4937V78.325C89.975 74.5437 93.75 67.475 93.75 59.375C93.75 47.2938 85.35 37.5 75 37.5C64.6438 37.5 56.25 47.2938 56.25 59.375C56.25 67.475 60.0187 74.5437 65.625 78.325V87.4937L50.6813 91.8688C48.6178 92.4729 46.7451 93.599 45.2441 95.1384C43.743 96.6778 42.6644 98.5783 42.1125 100.656L40.625 106.25" stroke="white" stroke-width="3" stroke-linecap="round" stroke-linejoin="round"/>
</svg>
