<svg width="20" height="20" viewBox="0 0 20 20" fill="none" xmlns="http://www.w3.org/2000/svg">
<path d="M5.19352 4.86199L5.56435 3.00699C5.6399 2.62903 5.84411 2.28893 6.14222 2.04461C6.44033 1.80029 6.81391 1.66684 7.19935 1.66699H12.7993C13.1848 1.66684 13.5584 1.80029 13.8565 2.04461C14.1546 2.28893 14.3588 2.62903 14.4343 3.00699L14.8052 4.86199C14.8635 5.15261 15.003 5.42073 15.2076 5.63521C15.4122 5.84968 15.6735 6.00172 15.961 6.07366C16.6384 6.24341 17.2396 6.63456 17.6693 7.18502C18.099 7.73547 18.3325 8.41369 18.3327 9.11199V15.0003C18.3327 15.8844 17.9815 16.7322 17.3564 17.3573C16.7313 17.9825 15.8834 18.3337 14.9993 18.3337H4.99935C4.11529 18.3337 3.26745 17.9825 2.64233 17.3573C2.01721 16.7322 1.66602 15.8844 1.66602 15.0003V9.11199C1.66624 8.41369 1.89973 7.73547 2.3294 7.18502C2.75908 6.63456 3.36033 6.24341 4.03768 6.07366C4.32523 6.00172 4.58647 5.84968 4.79107 5.63521C4.99566 5.42073 5.13521 5.15261 5.19352 4.86199Z" stroke="white" stroke-width="2" stroke-linecap="round" stroke-linejoin="round"/>
<path d="M9.99935 15.0007C11.8403 15.0007 13.3327 13.5083 13.3327 11.6673C13.3327 9.82637 11.8403 8.33398 9.99935 8.33398C8.1584 8.33398 6.66602 9.82637 6.66602 11.6673C6.66602 13.5083 8.1584 15.0007 9.99935 15.0007Z" stroke="white" stroke-width="2" stroke-linecap="round" stroke-linejoin="round"/>
<path d="M9.16602 5H10.8327" stroke="white" stroke-width="2" stroke-linecap="round" stroke-linejoin="round"/>
</svg>
