<svg width="154" height="154" viewBox="0 0 154 154" fill="none" xmlns="http://www.w3.org/2000/svg">
<path d="M41.0661 77.0005L71.8662 102.667L112.933 51.3338M76.9995 148.867C67.5618 148.867 58.2166 147.008 49.4973 143.397C40.778 139.785 32.8555 134.491 26.1821 127.818C19.5086 121.144 14.215 113.222 10.6033 104.503C6.9917 95.7834 5.13281 86.4381 5.13281 77.0005C5.13281 67.5628 6.9917 58.2175 10.6033 49.4983C14.215 40.779 19.5086 32.8565 26.1821 26.183C32.8555 19.5096 40.778 14.216 49.4973 10.6043C58.2166 6.99268 67.5618 5.13379 76.9995 5.13379C96.0597 5.13379 114.339 12.7054 127.817 26.1831C141.295 39.6607 148.866 57.9402 148.866 77.0005C148.866 96.0607 141.295 114.34 127.817 127.818C114.339 141.295 96.0597 148.867 76.9995 148.867Z" stroke="#08B008" stroke-width="8"/>
</svg>
