<svg width="20" height="20" viewBox="0 0 20 20" fill="none" xmlns="http://www.w3.org/2000/svg">
<path fill-rule="evenodd" clip-rule="evenodd" d="M11.2507 2.5H8.7507C8.58494 2.5 8.42597 2.56585 8.30876 2.68306C8.19155 2.80027 8.1257 2.95924 8.1257 3.125V3.75H11.8757V3.125C11.8757 2.95924 11.8099 2.80027 11.6926 2.68306C11.5754 2.56585 11.4165 2.5 11.2507 2.5ZM13.7507 3.75V3.125C13.7507 2.46196 13.4873 1.82607 13.0185 1.35723C12.5496 0.888392 11.9137 0.625 11.2507 0.625H8.7507C8.08766 0.625 7.45178 0.888392 6.98294 1.35723C6.5141 1.82607 6.2507 2.46196 6.2507 3.125V3.75H2.81445C2.56581 3.75 2.32736 3.84877 2.15154 4.02459C1.97573 4.2004 1.87695 4.43886 1.87695 4.6875C1.87695 4.93614 1.97573 5.1746 2.15154 5.35041C2.32736 5.52623 2.56581 5.625 2.81445 5.625H3.20445L3.6007 15.1562C3.64102 16.1231 4.0535 17.0368 4.7519 17.7066C5.4503 18.3763 6.38056 18.7502 7.3482 18.75H12.6545C13.6219 18.7499 14.5518 18.3759 15.25 17.7062C15.9481 17.0364 16.3604 16.1228 16.4007 15.1562L16.7982 5.625H17.1882C17.4368 5.625 17.6753 5.52623 17.8511 5.35041C18.0269 5.1746 18.1257 4.93614 18.1257 4.6875C18.1257 4.43886 18.0269 4.2004 17.8511 4.02459C17.6753 3.84877 17.4368 3.75 17.1882 3.75H13.7507ZM14.9207 5.625H5.0807L5.47445 15.0775C5.49446 15.561 5.70062 16.0181 6.04984 16.3531C6.39906 16.6881 6.86428 16.8751 7.3482 16.875H12.6545C13.1382 16.8748 13.6031 16.6876 13.952 16.3526C14.301 16.0177 14.507 15.5608 14.527 15.0775L14.9207 5.625ZM7.1882 8.125V14.375C7.1882 14.6236 7.28697 14.8621 7.46279 15.0379C7.63861 15.2137 7.87706 15.3125 8.1257 15.3125C8.37434 15.3125 8.6128 15.2137 8.78862 15.0379C8.96443 14.8621 9.0632 14.6236 9.0632 14.375V8.125C9.0632 7.87636 8.96443 7.6379 8.78862 7.46209C8.6128 7.28627 8.37434 7.1875 8.1257 7.1875C7.87706 7.1875 7.63861 7.28627 7.46279 7.46209C7.28697 7.6379 7.1882 7.87636 7.1882 8.125ZM11.8757 7.1875C12.1243 7.1875 12.3628 7.28627 12.5386 7.46209C12.7144 7.6379 12.8132 7.87636 12.8132 8.125V14.375C12.8132 14.6236 12.7144 14.8621 12.5386 15.0379C12.3628 15.2137 12.1243 15.3125 11.8757 15.3125C11.6271 15.3125 11.3886 15.2137 11.2128 15.0379C11.037 14.8621 10.9382 14.6236 10.9382 14.375V8.125C10.9382 7.87636 11.037 7.6379 11.2128 7.46209C11.3886 7.28627 11.6271 7.1875 11.8757 7.1875Z" fill="white"/>
</svg>
