<svg width="18" height="19" viewBox="0 0 18 19" fill="none" xmlns="http://www.w3.org/2000/svg">
<path fill-rule="evenodd" clip-rule="evenodd" d="M5.5 0.25C4.24022 0.25 3.03204 0.750445 2.14124 1.64124C1.25045 2.53204 0.75 3.74022 0.75 5V15C0.75 15.9946 1.14509 16.9484 1.84835 17.6517C2.55161 18.3549 3.50544 18.75 4.5 18.75H15.5C15.9641 18.75 16.4092 18.5656 16.7374 18.2374C17.0656 17.9092 17.25 17.4641 17.25 17V2C17.25 1.53587 17.0656 1.09075 16.7374 0.762563C16.4092 0.434375 15.9641 0.25 15.5 0.25H5.5ZM15.75 11.25V2C15.75 1.9337 15.7237 1.87011 15.6768 1.82322C15.6299 1.77634 15.5663 1.75 15.5 1.75H5.5C4.63805 1.75 3.8114 2.09241 3.2019 2.7019C2.59241 3.3114 2.25 4.13805 2.25 5V12C2.89843 11.5119 3.68838 11.2485 4.5 11.25H15.75ZM15.75 12.75H4.5C3.90326 12.75 3.33097 12.9871 2.90901 13.409C2.48705 13.831 2.25 14.4033 2.25 15C2.25 15.5967 2.48705 16.169 2.90901 16.591C3.33097 17.0129 3.90326 17.25 4.5 17.25H15.5C15.5663 17.25 15.6299 17.2237 15.6768 17.1768C15.7237 17.1299 15.75 17.0663 15.75 17V12.75Z" fill="white"/>
</svg>
