<svg width="32" height="32" viewBox="0 0 32 32" fill="none" xmlns="http://www.w3.org/2000/svg">
<path fill-rule="evenodd" clip-rule="evenodd" d="M16.0001 5.33366C14.1344 5.33332 12.3013 5.82231 10.6837 6.75183C9.06611 7.68135 7.72058 9.01888 6.78145 10.6309C5.84232 12.243 5.34242 14.0731 5.33165 15.9388C5.32088 17.8044 5.79963 19.6402 6.7201 21.263C7.34224 20.4544 8.142 19.7998 9.05754 19.3496C9.97308 18.8995 10.9799 18.6659 12.0001 18.667H20.0001C21.0203 18.6659 22.0271 18.8995 22.9426 19.3496C23.8582 19.7998 24.6579 20.4544 25.2801 21.263C26.2006 19.6402 26.6793 17.8044 26.6685 15.9388C26.6578 14.0731 26.1579 12.243 25.2187 10.6309C24.2796 9.01888 22.9341 7.68135 21.3165 6.75183C19.6989 5.82231 17.8658 5.33332 16.0001 5.33366ZM26.5908 24.1017C26.7579 23.8839 26.9179 23.6608 27.0708 23.4323C28.5489 21.2359 29.3369 18.6478 29.3334 16.0003C29.3334 8.63633 23.3641 2.66699 16.0001 2.66699C8.6361 2.66699 2.66676 8.63633 2.66676 16.0003C2.66256 18.9293 3.62681 21.7776 5.40943 24.1017L5.40276 24.1257L5.8761 24.6763C7.12661 26.1383 8.67927 27.3118 10.4271 28.1158C12.1749 28.9199 14.0762 29.3354 16.0001 29.3337C16.2881 29.3337 16.5743 29.3248 16.8588 29.307C19.2646 29.1553 21.5837 28.3509 23.5668 26.9803C24.5152 26.326 25.3748 25.5516 26.1241 24.6763L26.5974 24.1257L26.5908 24.1017ZM16.0001 8.00033C14.9392 8.00033 13.9218 8.42175 13.1717 9.1719C12.4215 9.92204 12.0001 10.9395 12.0001 12.0003C12.0001 13.0612 12.4215 14.0786 13.1717 14.8288C13.9218 15.5789 14.9392 16.0003 16.0001 16.0003C17.061 16.0003 18.0784 15.5789 18.8285 14.8288C19.5787 14.0786 20.0001 13.0612 20.0001 12.0003C20.0001 10.9395 19.5787 9.92204 18.8285 9.1719C18.0784 8.42175 17.061 8.00033 16.0001 8.00033Z" fill="white"/>
</svg>
