<svg width="17" height="22" viewBox="0 0 17 22" fill="none" xmlns="http://www.w3.org/2000/svg">
<path fill-rule="evenodd" clip-rule="evenodd" d="M1.84315 7.05969C1.84315 5.18734 2.5445 3.39168 3.7929 2.06773C5.0413 0.743786 6.73449 0 8.5 0C10.2655 0 11.9587 0.743786 13.2071 2.06773C14.4555 3.39168 15.1568 5.18734 15.1568 7.05969V10.8558L16.8895 14.5309C16.9693 14.7 17.007 14.888 16.9989 15.0769C16.9909 15.2658 16.9375 15.4494 16.8437 15.6103C16.75 15.7712 16.619 15.904 16.4632 15.9961C16.3075 16.0881 16.1321 16.1365 15.9538 16.1364H12.1841C11.9726 17.002 11.496 17.7685 10.8292 18.3158C10.1624 18.863 9.34313 19.1599 8.5 19.1599C7.65686 19.1599 6.8376 18.863 6.1708 18.3158C5.50401 17.7685 5.02744 17.002 4.81591 16.1364H1.04623C0.867902 16.1365 0.692526 16.0881 0.536761 15.9961C0.380995 15.904 0.250013 15.7712 0.156253 15.6103C0.0624936 15.4494 0.00907016 15.2658 0.00105681 15.0769C-0.00695654 14.888 0.0307064 14.7 0.110468 14.5309L1.84315 10.8558V7.05969ZM6.8529 16.1364C7.01984 16.443 7.25994 16.6976 7.54906 16.8747C7.83819 17.0517 8.16615 17.1449 8.5 17.1449C8.83385 17.1449 9.16181 17.0517 9.45094 16.8747C9.74006 16.6976 9.98016 16.443 10.1471 16.1364H6.8529ZM8.5 2.01705C7.23892 2.01705 6.0295 2.54833 5.13778 3.49401C4.24607 4.43968 3.74511 5.7223 3.74511 7.05969V10.8558C3.74509 11.1688 3.67639 11.4774 3.54445 11.7574L2.43181 14.1194H14.5691L13.4565 11.7574C13.3242 11.4775 13.2552 11.1688 13.2549 10.8558V7.05969C13.2549 5.7223 12.7539 4.43968 11.8622 3.49401C10.9705 2.54833 9.76108 2.01705 8.5 2.01705Z" fill="white"/>
</svg>
