<svg width="24" height="24" viewBox="0 0 24 24" fill="none" xmlns="http://www.w3.org/2000/svg">
<g clip-path="url(#clip0_184_924)">
<mask id="mask0_184_924" style="mask-type:luminance" maskUnits="userSpaceOnUse" x="0" y="0" width="24" height="24">
<path d="M0 0H24V24H0V0Z" fill="white"/>
</mask>
<g mask="url(#mask0_184_924)">
<path d="M11.3851 15.2749C12.4961 15.2709 14.9251 15.2619 14.8971 13.7169C14.8701 12.1369 12.5371 12.2319 11.4001 12.2789C11.2721 12.2849 11.1614 12.2886 11.0681 12.2899L11.1201 15.2769C11.1961 15.2749 11.2844 15.2742 11.3851 15.2749ZM11.2671 10.9219C12.1941 10.9209 14.2171 10.9189 14.1931 9.51391C14.1671 8.07691 12.2241 8.16191 11.2751 8.20391C11.1684 8.20924 11.0757 8.21257 10.9971 8.21391L11.0441 10.9229L11.2671 10.9219Z" fill="white"/>
<path fill-rule="evenodd" clip-rule="evenodd" d="M9.09616 23.641C15.5262 25.244 22.0382 21.331 23.6412 14.903C25.2442 8.47399 21.3302 1.96199 14.9002 0.359994C8.47416 -1.24401 1.96216 2.66999 0.360165 9.09999C-1.24284 15.528 2.67017 22.04 9.09717 23.642M13.3792 6.62199C15.1332 6.74599 16.5292 7.25999 16.7122 8.86399C16.8482 10.038 16.3682 10.753 15.5892 11.167C16.8892 11.455 17.7142 12.21 17.5842 13.938C17.4232 16.083 15.8362 16.686 13.5582 16.857L13.5962 19.107L12.2402 19.131L12.2012 16.911C11.8505 16.9177 11.4892 16.9203 11.1172 16.919L11.1572 19.149L9.80116 19.173L9.76116 16.919L9.37817 16.922C9.1835 16.922 8.98816 16.924 8.79216 16.928L7.02617 16.958L7.26717 15.334C7.26717 15.334 8.27116 15.332 8.25317 15.317C8.63717 15.309 8.73417 15.032 8.75517 14.858L8.69316 11.3L8.79016 11.298H8.83617C8.7884 11.2922 8.74027 11.2899 8.69217 11.291L8.64816 8.75099C8.59116 8.47699 8.40716 8.16099 7.85816 8.17099C7.87316 8.15099 6.87217 8.18799 6.87217 8.18799L6.84617 6.73999L8.71817 6.70799V6.71499C9.00016 6.70966 9.28783 6.70099 9.58117 6.68899L9.54317 4.45999L10.8992 4.43699L10.9372 6.62099C11.2992 6.60799 11.6632 6.59399 12.0202 6.58799L11.9822 4.41799L13.3392 4.39399L13.3792 6.62199Z" fill="white"/>
</g>
</g>
<defs>
<clipPath id="clip0_184_924">
<rect width="24" height="24" fill="white"/>
</clipPath>
</defs>
</svg>
