<svg width="24" height="24" viewBox="0 0 24 24" fill="none" xmlns="http://www.w3.org/2000/svg">
<path d="M5.00491 9.00293C5.27012 9.00293 5.52448 9.10829 5.71201 9.29582C5.89955 9.48336 6.00491 9.73771 6.00491 10.0029C7.57605 10.0006 9.10189 10.5292 10.3349 11.5029H12.5049C13.8369 11.5029 15.0349 12.0829 15.8589 13.0029H19.0049C19.9502 13.0027 20.8761 13.2704 21.6754 13.775C22.4747 14.2796 23.1146 15.0004 23.5209 15.8539C21.1559 18.9739 17.3269 21.0029 13.0049 21.0029C10.2149 21.0029 7.85491 20.3999 5.94391 19.3449C5.8737 19.5378 5.74584 19.7044 5.57767 19.8222C5.4095 19.9399 5.20918 20.003 5.00391 20.0029H2.00391C1.73869 20.0029 1.48434 19.8976 1.2968 19.71C1.10926 19.5225 1.00391 19.2681 1.00391 19.0029V10.0029C1.00391 9.73771 1.10926 9.48336 1.2968 9.29582C1.48434 9.10829 1.73869 9.00293 2.00391 9.00293H5.00491ZM6.00491 12.0029V17.0249L6.04991 17.0569C7.84391 18.3169 10.1829 19.0029 13.0049 19.0029C16.0089 19.0029 18.8029 17.8469 20.8399 15.8729L20.9729 15.7399L20.8529 15.6399C20.3805 15.2704 19.8082 15.051 19.2099 15.0099L19.0049 15.0029H16.8929C16.9662 15.3249 17.0036 15.6583 17.0049 16.0029V17.0029H8.00491V15.0029L14.7949 15.0019L14.7609 14.9229C14.5692 14.5226 14.2744 14.1805 13.9067 13.9318C13.5391 13.6832 13.1118 13.5368 12.6689 13.5079L12.5049 13.5029H9.57491C9.10947 13.0281 8.55401 12.6509 7.94101 12.3933C7.32802 12.1357 6.66981 12.003 6.00491 12.0029ZM4.00491 11.0029H3.00491V18.0029H4.00491V11.0029ZM18.0049 5.00293C18.8006 5.00293 19.5636 5.319 20.1262 5.88161C20.6888 6.44422 21.0049 7.20728 21.0049 8.00293C21.0049 8.79858 20.6888 9.56164 20.1262 10.1242C19.5636 10.6869 18.8006 11.0029 18.0049 11.0029C17.2093 11.0029 16.4462 10.6869 15.8836 10.1242C15.321 9.56164 15.0049 8.79858 15.0049 8.00293C15.0049 7.20728 15.321 6.44422 15.8836 5.88161C16.4462 5.319 17.2093 5.00293 18.0049 5.00293ZM18.0049 7.00293C17.7397 7.00293 17.4853 7.10829 17.2978 7.29582C17.1103 7.48336 17.0049 7.73771 17.0049 8.00293C17.0049 8.26815 17.1103 8.5225 17.2978 8.71004C17.4853 8.89757 17.7397 9.00293 18.0049 9.00293C18.2701 9.00293 18.5245 8.89757 18.712 8.71004C18.8995 8.5225 19.0049 8.26815 19.0049 8.00293C19.0049 7.73771 18.8995 7.48336 18.712 7.29582C18.5245 7.10829 18.2701 7.00293 18.0049 7.00293ZM11.0049 2.00293C11.8006 2.00293 12.5636 2.319 13.1262 2.88161C13.6888 3.44422 14.0049 4.20728 14.0049 5.00293C14.0049 5.79858 13.6888 6.56164 13.1262 7.12425C12.5636 7.68686 11.8006 8.00293 11.0049 8.00293C10.2093 8.00293 9.44619 7.68686 8.88359 7.12425C8.32098 6.56164 8.00491 5.79858 8.00491 5.00293C8.00491 4.20728 8.32098 3.44422 8.88359 2.88161C9.44619 2.319 10.2093 2.00293 11.0049 2.00293ZM11.0049 4.00293C10.7397 4.00293 10.4853 4.10829 10.2978 4.29582C10.1103 4.48336 10.0049 4.73771 10.0049 5.00293C10.0049 5.26815 10.1103 5.5225 10.2978 5.71004C10.4853 5.89757 10.7397 6.00293 11.0049 6.00293C11.2701 6.00293 11.5245 5.89757 11.712 5.71004C11.8995 5.5225 12.0049 5.26815 12.0049 5.00293C12.0049 4.73771 11.8995 4.48336 11.712 4.29582C11.5245 4.10829 11.2701 4.00293 11.0049 4.00293Z" fill="white"/>
</svg>
