<svg width="19" height="19" viewBox="0 0 19 19" fill="none" xmlns="http://www.w3.org/2000/svg">
<path d="M16.4667 4.14457C15.2189 2.64868 13.5075 1.61205 11.6038 1.19897C9.70009 0.785887 7.71297 1.01999 5.95738 1.86417C4.20178 2.70835 2.77815 4.11431 1.91212 5.85923C1.04609 7.60414 0.787193 9.58819 1.17647 11.4969M18.2666 7.7385C18.726 9.6769 18.5101 11.7141 17.6546 13.5131C16.7991 15.3122 15.3553 16.7654 13.5618 17.6325C11.7683 18.4996 9.73259 18.7286 7.79126 18.2817C5.84993 17.8348 4.11924 16.7388 2.88537 15.1748" stroke="white" stroke-linecap="round"/>
<path d="M16.8961 2.16992V4.50289H14.5631M4.93966 15.0012H2.60669V17.3342" stroke="white" stroke-linecap="round" stroke-linejoin="round"/>
<path d="M9.75146 5.08594V14.4178" stroke="white" stroke-linecap="round"/>
<path d="M11.8628 7.5965C11.7228 6.97826 10.9261 6.29004 9.75842 6.29004C8.59077 6.29004 7.69374 7.04825 7.69374 8.00477C7.69374 10.1791 12.0226 9.0616 12.0226 11.5859C12.0226 12.4969 10.9261 13.2703 9.75958 13.2703C8.5931 13.2703 7.78356 12.5529 7.54443 11.7842" stroke="white" stroke-linecap="round" stroke-linejoin="round"/>
</svg>
