<svg width="28" height="28" viewBox="0 0 28 28" fill="none" xmlns="http://www.w3.org/2000/svg">
<path d="M16.0068 25.4802C15.3535 25.5968 14.6885 25.6668 14.0002 25.6668C7.5835 25.6668 2.3335 20.4168 2.3335 14.0002C2.3335 7.5835 7.5835 2.3335 14.0002 2.3335C20.4168 2.3335 25.6668 7.5835 25.6668 14.0002C25.6668 14.6885 25.5968 15.3535 25.4802 16.0068C24.4639 15.4527 23.3243 15.1638 22.1668 15.1668C20.6968 15.1668 19.3318 15.6218 18.2002 16.4035L14.5835 14.2335V8.16683H12.8335V15.1668L16.8352 17.6285C15.754 18.893 15.1621 20.5032 15.1668 22.1668C15.1668 23.3685 15.4702 24.5002 16.0068 25.4802ZM21.0002 17.5002V21.0002H17.5002V23.3335H21.0002V26.8335H23.3335V23.3335H26.8335V21.0002H23.3335V17.5002H21.0002Z" fill="white"/>
</svg>
