<svg width="41" height="40" viewBox="0 0 41 40" fill="none" xmlns="http://www.w3.org/2000/svg">
<rect x="0.5" y="0.5" width="40" height="39" rx="19.5" stroke="#413F54"/>
<path fill-rule="evenodd" clip-rule="evenodd" d="M13.8432 16.0597C13.8432 14.1873 14.5445 12.3917 15.7929 11.0677C17.0413 9.74379 18.7345 9 20.5 9C22.2655 9 23.9587 9.74379 25.2071 11.0677C26.4555 12.3917 27.1568 14.1873 27.1568 16.0597V19.8558L28.8895 23.5309C28.9693 23.7 29.007 23.888 28.9989 24.0769C28.9909 24.2658 28.9375 24.4494 28.8437 24.6103C28.75 24.7712 28.619 24.904 28.4632 24.9961C28.3075 25.0881 28.1321 25.1365 27.9538 25.1364H24.1841C23.9726 26.002 23.496 26.7685 22.8292 27.3158C22.1624 27.863 21.3431 28.1599 20.5 28.1599C19.6569 28.1599 18.8376 27.863 18.1708 27.3158C17.504 26.7685 17.0274 26.002 16.8159 25.1364H13.0462C12.8679 25.1365 12.6925 25.0881 12.5368 24.9961C12.381 24.904 12.25 24.7712 12.1563 24.6103C12.0625 24.4494 12.0091 24.2658 12.0011 24.0769C11.993 23.888 12.0307 23.7 12.1105 23.5309L13.8432 19.8558V16.0597ZM18.8529 25.1364C19.0198 25.443 19.2599 25.6976 19.5491 25.8747C19.8382 26.0517 20.1662 26.1449 20.5 26.1449C20.8338 26.1449 21.1618 26.0517 21.4509 25.8747C21.7401 25.6976 21.9802 25.443 22.1471 25.1364H18.8529ZM20.5 11.0171C19.2389 11.0171 18.0295 11.5483 17.1378 12.494C16.2461 13.4397 15.7451 14.7223 15.7451 16.0597V19.8558C15.7451 20.1688 15.6764 20.4774 15.5445 20.7574L14.4318 23.1194H26.5691L25.4565 20.7574C25.3242 20.4775 25.2552 20.1688 25.2549 19.8558V16.0597C25.2549 14.7223 24.7539 13.4397 23.8622 12.494C22.9705 11.5483 21.7611 11.0171 20.5 11.0171Z" fill="white"/>
</svg>
