<svg width="25" height="24" viewBox="0 0 25 24" fill="none" xmlns="http://www.w3.org/2000/svg">
<path d="M16.0834 12C15.1197 12 14.1878 11.5697 13.4584 10.7888C12.7492 10.027 12.3161 9.01125 12.2397 7.92938C12.1581 6.77531 12.5102 5.71406 13.2306 4.94063C13.9511 4.16719 14.9584 3.75 16.0834 3.75C17.2005 3.75 18.2106 4.17469 18.9288 4.94625C19.6539 5.72531 20.0069 6.78469 19.9253 7.92891C19.847 9.01219 19.4144 10.0275 18.7066 10.7883C17.9791 11.5697 17.0477 12 16.0834 12ZM22.263 20.25H9.90438C9.70568 20.2511 9.50939 20.2065 9.33061 20.1198C9.15182 20.0331 8.99532 19.9065 8.87313 19.7498C8.74352 19.58 8.65402 19.383 8.61132 19.1736C8.56862 18.9643 8.57383 18.748 8.62657 18.5409C9.02126 16.9561 9.99907 15.6417 11.4541 14.7403C12.7455 13.9406 14.3894 13.5 16.0834 13.5C17.8108 13.5 19.4116 13.9219 20.7105 14.7211C22.1688 15.6178 23.148 16.9397 23.5408 18.5438C23.5929 18.751 23.5975 18.9673 23.5543 19.1765C23.5112 19.3857 23.4213 19.5825 23.2914 19.7522C23.1694 19.9082 23.0132 20.0341 22.8349 20.1204C22.6567 20.2067 22.461 20.251 22.263 20.25ZM7.22407 12.1875C5.57454 12.1875 4.12422 10.6538 3.98969 8.76891C3.92313 7.80328 4.22407 6.91031 4.83344 6.25547C5.43626 5.60719 6.28657 5.25 7.22407 5.25C8.16157 5.25 9.00532 5.60906 9.61141 6.26109C10.2255 6.92109 10.5255 7.81219 10.4552 8.76984C10.3206 10.6542 8.87079 12.1875 7.22407 12.1875ZM10.3019 13.6617C9.47735 13.2586 8.40719 13.057 7.22454 13.057C5.8436 13.057 4.50251 13.417 3.44782 14.0705C2.25204 14.8125 1.44766 15.893 1.12282 17.1975C1.07528 17.3851 1.07078 17.5811 1.10967 17.7707C1.14855 17.9603 1.2298 18.1387 1.34735 18.2925C1.45889 18.4357 1.60178 18.5514 1.76504 18.6307C1.92829 18.71 2.10757 18.7508 2.28907 18.75H7.49219C7.58001 18.75 7.66504 18.7192 7.73246 18.6629C7.79988 18.6066 7.8454 18.5284 7.8611 18.442C7.86626 18.4125 7.87282 18.383 7.88032 18.3539C8.27782 16.7573 9.20922 15.4083 10.5855 14.4248C10.6361 14.3884 10.6768 14.3398 10.7039 14.2836C10.731 14.2274 10.7437 14.1653 10.7408 14.103C10.7378 14.0407 10.7194 13.9801 10.6871 13.9267C10.6549 13.8733 10.6098 13.8288 10.5559 13.7972C10.4823 13.7541 10.398 13.7086 10.3019 13.6617Z" fill="white"/>
</svg>
