<svg width="28" height="28" viewBox="0 0 28 28" fill="none" xmlns="http://www.w3.org/2000/svg">
<path d="M22.1821 11.8415C22.1092 11.9164 22.0556 12.0079 22.0262 12.1081C21.9967 12.2084 21.9921 12.3143 22.0129 12.4167C22.1155 12.93 22.1669 13.4577 22.1669 13.9999C22.1668 15.6463 21.669 17.2542 20.7389 18.6127C19.8088 19.9713 18.4898 21.017 16.955 21.6127C15.4201 22.2083 13.741 22.3262 12.138 21.9508C10.5349 21.5753 9.08279 20.7241 7.97205 19.5089C7.91696 19.4471 7.85004 19.397 7.77524 19.3616C7.70044 19.3262 7.6193 19.3061 7.53661 19.3026C7.45393 19.2992 7.37138 19.3123 7.29387 19.3413C7.21636 19.3703 7.14547 19.4146 7.08538 19.4715C6.98329 19.5704 6.92309 19.7047 6.91723 19.8467C6.91137 19.9887 6.96029 20.1276 7.05388 20.2345C8.42441 21.7627 10.2605 22.7965 12.2779 23.1757C14.2953 23.555 16.3815 23.2586 18.2134 22.3324C20.0454 21.4062 21.5209 19.9019 22.4114 18.0524C23.302 16.2029 23.5581 14.1114 23.1399 12.1017C23.0477 11.6549 22.5041 11.5207 22.1821 11.8427M20.754 8.35435C20.8581 8.25358 20.9185 8.11609 20.9225 7.9713C20.9264 7.82651 20.8735 7.68594 20.775 7.57969C19.3699 6.09555 17.5165 5.11365 15.4994 4.78475C13.4823 4.45585 11.413 4.79813 9.60917 5.75904C7.80539 6.71996 6.36688 8.24637 5.51451 10.1039C4.66215 11.9615 4.44306 14.0474 4.89088 16.0415C4.98888 16.4825 5.52788 16.612 5.84755 16.2924C5.99922 16.1407 6.05755 15.919 6.01322 15.709C5.64134 13.9733 5.8451 12.1638 6.59364 10.5542C7.34219 8.94471 8.59476 7.6229 10.1617 6.78892C11.7287 5.95494 13.5247 5.65421 15.2779 5.93225C17.031 6.21029 18.6459 7.05197 19.8779 8.32985C19.9337 8.38899 20.0006 8.43654 20.0748 8.46978C20.149 8.50302 20.229 8.5213 20.3103 8.52358C20.3916 8.52586 20.4725 8.51208 20.5484 8.48304C20.6244 8.454 20.695 8.41027 20.754 8.35435Z" fill="white"/>
<path fill-rule="evenodd" clip-rule="evenodd" d="M21.146 5.8335C21.3007 5.8335 21.4491 5.89495 21.5585 6.00435C21.6679 6.11375 21.7293 6.26212 21.7293 6.41683V8.75016C21.7293 8.90487 21.6679 9.05325 21.5585 9.16264C21.4491 9.27204 21.3007 9.3335 21.146 9.3335H18.8127C18.658 9.3335 18.5096 9.27204 18.4002 9.16264C18.2908 9.05325 18.2293 8.90487 18.2293 8.75016C18.2293 8.59545 18.2908 8.44708 18.4002 8.33768C18.5096 8.22829 18.658 8.16683 18.8127 8.16683H20.5627V6.41683C20.5627 6.26212 20.6241 6.11375 20.7335 6.00435C20.8429 5.89495 20.9913 5.8335 21.146 5.8335ZM6.44133 18.8383C6.49551 18.784 6.55987 18.7409 6.63074 18.7114C6.70161 18.682 6.77759 18.6668 6.85433 18.6668H9.18766C9.34237 18.6668 9.49075 18.7283 9.60014 18.8377C9.70954 18.9471 9.771 19.0955 9.771 19.2502C9.771 19.4049 9.70954 19.5532 9.60014 19.6626C9.49075 19.772 9.34237 19.8335 9.18766 19.8335H7.43766V21.5835C7.43766 21.7382 7.37621 21.8866 7.26681 21.996C7.15741 22.1054 7.00904 22.1668 6.85433 22.1668C6.69962 22.1668 6.55125 22.1054 6.44185 21.996C6.33246 21.8866 6.271 21.7382 6.271 21.5835V19.2502C6.27086 19.1735 6.28583 19.0976 6.31506 19.0267C6.34429 18.9558 6.38719 18.8926 6.44133 18.8383Z" fill="white"/>
<path d="M14.2612 14.3894V16.6539C15.0335 16.5676 15.5889 16.1208 15.5889 15.4803C15.5889 14.8293 14.9764 14.5866 14.2869 14.3953L14.2612 14.3894ZM12.5894 12.4306C12.5894 13.0781 13.2544 13.3464 13.7385 13.4829V11.3643C13.0362 11.4576 12.5894 11.8776 12.5894 12.4306Z" fill="white"/>
<path fill-rule="evenodd" clip-rule="evenodd" d="M13.9998 19.8332C15.5469 19.8332 17.0307 19.2186 18.1246 18.1246C19.2186 17.0307 19.8332 15.5469 19.8332 13.9998C19.8332 12.4527 19.2186 10.969 18.1246 9.87505C17.0307 8.78109 15.5469 8.1665 13.9998 8.1665C12.4527 8.1665 10.969 8.78109 9.87505 9.87505C8.78109 10.969 8.1665 12.4527 8.1665 13.9998C8.1665 15.5469 8.78109 17.0307 9.87505 18.1246C10.969 19.2186 12.4527 19.8332 13.9998 19.8332ZM14.2612 18.0832H13.7385V17.3715C12.4843 17.2898 11.719 16.5875 11.6455 15.5818H12.4622C12.5205 16.2387 13.0688 16.584 13.7385 16.654V14.239L13.483 14.1655C12.4622 13.8727 11.824 13.3488 11.824 12.4692C11.824 11.4658 12.6442 10.7717 13.7373 10.6608V9.9165H14.2623V10.6503C15.4173 10.7273 16.234 11.4355 16.2643 12.3665H15.499C15.429 11.7855 14.9378 11.4215 14.2623 11.355V13.623L14.5167 13.693C15.1933 13.8727 16.3542 14.2682 16.3542 15.4932C16.3542 16.4883 15.6017 17.2793 14.2612 17.3715V18.0832Z" fill="white"/>
</svg>
