<svg width="28" height="28" viewBox="0 0 28 28" fill="none" xmlns="http://www.w3.org/2000/svg">
<path fill-rule="evenodd" clip-rule="evenodd" d="M3.81363 8.34835L11.9061 2.68185C12.3406 2.37774 12.878 2.25862 13.4003 2.3507C13.9226 2.44277 14.3869 2.7385 14.6911 3.17285L15.9676 4.99535C15.9863 5.02202 16.0041 5.04919 16.0211 5.07685L3.81363 8.34835ZM1.07363 14.9199L0.520127 12.8539C0.383016 12.3415 0.455067 11.7956 0.72043 11.3363C0.985793 10.877 1.42273 10.542 1.93513 10.4049L22.2191 4.96985C22.7315 4.83256 23.2773 4.9044 23.7367 5.16957C24.1961 5.43474 24.5313 5.87153 24.6686 6.38385L25.2441 8.53285C25.3254 8.83624 25.3156 9.15685 25.216 9.4547C25.1163 9.75256 24.9311 10.0145 24.6836 10.2079C24.2946 10.5112 24.0041 10.9229 23.8485 11.391C23.6929 11.8592 23.6793 12.3629 23.8094 12.8387C23.9394 13.3146 24.2073 13.7414 24.5793 14.0653C24.9514 14.3893 25.4109 14.596 25.9001 14.6594C26.2023 14.6988 26.4859 14.827 26.7152 15.0277C26.9445 15.2284 27.1091 15.4926 27.1881 15.7869L27.7741 17.9754C27.9114 18.4877 27.8396 19.0336 27.5744 19.4929C27.3092 19.9523 26.8724 20.2875 26.3601 20.4249L6.07513 25.8599C5.56286 25.997 5.01711 25.9251 4.55786 25.6599C4.09861 25.3948 3.76346 24.9581 3.62613 24.4459L3.07463 22.3869C2.98746 22.0628 2.99583 21.7205 3.09874 21.4012C3.20164 21.0818 3.39469 20.799 3.65463 20.5869C4.02813 20.282 4.30553 19.8756 4.45341 19.4167C4.60129 18.9578 4.61334 18.4659 4.48812 18.0003C4.3629 17.5347 4.10574 17.1153 3.74761 16.7925C3.38949 16.4696 2.94568 16.2572 2.46963 16.1809C2.1403 16.1277 1.83336 15.9805 1.58577 15.757C1.33818 15.5334 1.1605 15.2431 1.07413 14.9209M18.8131 11.5764C19.0056 11.5274 19.1865 11.4408 19.3453 11.3214C19.5041 11.202 19.6375 11.0523 19.738 10.881C19.8384 10.7096 19.9038 10.52 19.9304 10.3231C19.9569 10.1263 19.9441 9.9261 19.8927 9.73424C19.8413 9.54237 19.7523 9.36263 19.6308 9.20545C19.5094 9.04826 19.3579 8.91676 19.1853 8.81857C19.0126 8.72039 18.8221 8.65748 18.625 8.6335C18.4278 8.60951 18.2278 8.62493 18.0366 8.67885C17.657 8.78593 17.3349 9.03821 17.1399 9.38109C16.9449 9.72396 16.8929 10.1298 16.995 10.5108C17.0971 10.8918 17.3451 11.2172 17.6854 11.4167C18.0257 11.6161 18.4308 11.6735 18.8131 11.5764ZM19.8481 15.4404C20.0384 15.3894 20.2168 15.3015 20.3731 15.1816C20.5294 15.0617 20.6606 14.9122 20.7591 14.7416C20.8576 14.571 20.9216 14.3827 20.9473 14.1874C20.9731 13.9921 20.9601 13.7936 20.9091 13.6034C20.8582 13.4131 20.7702 13.2347 20.6503 13.0784C20.5305 12.9221 20.3809 12.7909 20.2104 12.6924C20.0398 12.5939 19.8515 12.5299 19.6562 12.5042C19.4609 12.4784 19.2624 12.4914 19.0721 12.5424C18.6878 12.6453 18.3602 12.8967 18.1612 13.2413C17.9623 13.5858 17.9084 13.9953 18.0114 14.3796C18.1143 14.7639 18.3658 15.0916 18.7103 15.2905C19.0549 15.4894 19.4638 15.5433 19.8481 15.4404ZM20.8841 19.3039C21.0772 19.2555 21.2586 19.1691 21.418 19.0499C21.5773 18.9307 21.7114 18.781 21.8123 18.6094C21.9132 18.4379 21.9789 18.248 22.0057 18.0508C22.0325 17.8536 22.0198 17.6531 21.9683 17.4608C21.9168 17.2686 21.8276 17.0885 21.7059 16.9311C21.5841 16.7737 21.4322 16.6421 21.2591 16.544C21.086 16.4458 20.895 16.3831 20.6974 16.3595C20.4998 16.3359 20.2995 16.3518 20.1081 16.4064C19.7296 16.5143 19.4086 16.7667 19.2145 17.1092C19.0203 17.4516 18.9686 17.8567 19.0704 18.2369C19.1723 18.6172 19.4195 18.9422 19.7588 19.1418C20.0981 19.3414 20.5023 19.3996 20.8841 19.3039Z" fill="white"/>
</svg>
