<svg width="141" height="140" viewBox="0 0 141 140" fill="none" xmlns="http://www.w3.org/2000/svg">
<path d="M37.8337 70.0003L65.8337 93.3337L103.167 46.667M70.5003 135.334C61.9206 135.334 53.425 133.644 45.4983 130.36C37.5717 127.077 30.3694 122.265 24.3027 116.198C18.2359 110.131 13.4235 102.929 10.1402 95.0023C6.85689 87.0757 5.16699 78.58 5.16699 70.0003C5.16699 61.4206 6.85689 52.925 10.1402 44.9983C13.4235 37.0717 18.2359 29.8694 24.3027 23.8027C30.3694 17.7359 37.5717 12.9235 45.4983 9.6402C53.425 6.35689 61.9206 4.66699 70.5003 4.66699C87.8278 4.66699 104.446 11.5503 116.698 23.8027C128.95 36.0551 135.834 52.6729 135.834 70.0003C135.834 87.3278 128.95 103.946 116.698 116.198C104.446 128.45 87.8278 135.334 70.5003 135.334Z" stroke="#08B008" stroke-width="8"/>
</svg>
