<svg width="154" height="154" viewBox="0 0 154 154" fill="none" xmlns="http://www.w3.org/2000/svg">
<path d="M41.0666 77.0005L71.8666 102.667L112.933 51.3338M77 148.867C67.5623 148.867 58.2171 147.008 49.4978 143.397C40.7785 139.785 32.856 134.491 26.1826 127.818C19.5091 121.144 14.2155 113.222 10.6038 104.503C6.99219 95.7834 5.1333 86.4381 5.1333 77.0005C5.1333 67.5628 6.99219 58.2175 10.6038 49.4983C14.2155 40.779 19.5091 32.8565 26.1826 26.183C32.856 19.5096 40.7785 14.216 49.4978 10.6043C58.2171 6.99268 67.5623 5.13379 77 5.13379C96.0602 5.13379 114.34 12.7054 127.817 26.1831C141.295 39.6607 148.867 57.9402 148.867 77.0005C148.867 96.0607 141.295 114.34 127.817 127.818C114.34 141.295 96.0602 148.867 77 148.867Z" stroke="#08B008" stroke-width="8"/>
</svg>
