<svg width="154" height="154" viewBox="0 0 154 154" fill="none" xmlns="http://www.w3.org/2000/svg">
<path d="M43.7968 139.562H110.203C116.159 139.562 120.896 134.663 120.255 129.017C116.12 92.6406 91.4375 93.2422 91.4375 77C91.4375 60.7578 116.435 61.6602 120.252 24.9829C120.854 19.3342 116.159 14.4375 110.203 14.4375H43.7968C37.8413 14.4375 33.1581 19.3342 33.7477 24.9829C37.5646 61.6602 62.5625 60.457 62.5625 77C62.5625 93.543 37.8804 92.6406 33.7477 129.017C33.104 134.663 37.8413 139.562 43.7968 139.562Z" stroke="white" stroke-linecap="round" stroke-linejoin="round"/>
<path d="M103.258 129.938H50.8711C46.1789 129.938 44.8555 124.523 48.1461 121.167C56.1107 113.094 72.1875 107.313 72.1875 98.0547V67.375C72.1875 61.4045 60.7578 56.8477 53.6864 47.1625C52.5194 45.5654 52.6367 43.3125 55.6024 43.3125H98.5329C101.062 43.3125 101.61 45.5473 100.458 47.1475C93.4888 56.8477 81.8125 61.3744 81.8125 67.375V98.0547C81.8125 107.238 98.569 112.191 105.995 121.176C108.988 124.797 107.941 129.938 103.258 129.938Z" fill="white"/>
</svg>
