<svg width="32" height="33" viewBox="0 0 32 33" fill="none" xmlns="http://www.w3.org/2000/svg">
<path fill-rule="evenodd" clip-rule="evenodd" d="M16.026 4.5C13.0147 4.5 10.2714 5.49467 8.64803 6.30733C8.50136 6.38067 8.36447 6.45222 8.23736 6.522C7.98536 6.65933 7.7707 6.78733 7.60003 6.9L9.4467 9.61867L10.316 9.96467C13.7134 11.6787 18.2694 11.6787 21.6674 9.96467L22.654 9.45267L24.4 6.9C24.038 6.66474 23.6619 6.45168 23.274 6.262C21.6587 5.458 18.9807 4.5 16.0267 4.5M11.732 7.57733C11.0783 7.4543 10.4324 7.29223 9.79803 7.092C11.3187 6.41667 13.5847 5.7 16.0267 5.7C17.718 5.7 19.3174 6.044 20.64 6.48C19.09 6.698 17.436 7.068 15.86 7.52333C14.62 7.882 13.1707 7.84333 11.732 7.57733ZM22.372 10.9533L22.208 11.036C18.4707 12.9213 13.5134 12.9213 9.77603 11.036L9.6207 10.9573C4.00536 17.118 -0.281304 28.498 16.026 28.498C32.3334 28.498 27.9427 16.9067 22.372 10.9533ZM15.3334 16.5C14.9797 16.5 14.6406 16.6405 14.3906 16.8905C14.1405 17.1406 14 17.4797 14 17.8333C14 18.187 14.1405 18.5261 14.3906 18.7761C14.6406 19.0262 14.9797 19.1667 15.3334 19.1667V16.5ZM16.6667 15.1667V14.5H15.3334V15.1667C14.6261 15.1667 13.9478 15.4476 13.4477 15.9477C12.9476 16.4478 12.6667 17.1261 12.6667 17.8333C12.6667 18.5406 12.9476 19.2189 13.4477 19.719C13.9478 20.219 14.6261 20.5 15.3334 20.5V23.1667C14.7534 23.1667 14.2594 22.7967 14.0754 22.278C14.0481 22.1931 14.004 22.1146 13.9458 22.0471C13.8877 21.9795 13.8165 21.9244 13.7367 21.8848C13.6568 21.8452 13.5698 21.8221 13.4808 21.8167C13.3918 21.8113 13.3027 21.8239 13.2186 21.8536C13.1346 21.8833 13.0574 21.9295 12.9915 21.9896C12.9256 22.0497 12.8725 22.1223 12.8352 22.2033C12.7979 22.2843 12.7772 22.3719 12.7744 22.461C12.7716 22.5501 12.7866 22.6388 12.8187 22.722C13.0025 23.242 13.343 23.6923 13.7934 24.0107C14.2438 24.3291 14.7818 24.5001 15.3334 24.5V25.1667H16.6667V24.5C17.3739 24.5 18.0522 24.219 18.5523 23.719C19.0524 23.2189 19.3334 22.5406 19.3334 21.8333C19.3334 21.1261 19.0524 20.4478 18.5523 19.9477C18.0522 19.4476 17.3739 19.1667 16.6667 19.1667V16.5C17.2467 16.5 17.7407 16.87 17.9247 17.3887C17.952 17.4735 17.996 17.552 18.0542 17.6196C18.1124 17.6871 18.1835 17.7423 18.2634 17.7819C18.3433 17.8215 18.4303 17.8446 18.5192 17.85C18.6082 17.8553 18.6974 17.8428 18.7814 17.8131C18.8655 17.7834 18.9427 17.7371 19.0086 17.6771C19.0744 17.617 19.1276 17.5443 19.1649 17.4634C19.2022 17.3824 19.2228 17.2948 19.2257 17.2057C19.2285 17.1166 19.2134 17.0278 19.1814 16.9447C18.9976 16.4246 18.657 15.9744 18.2066 15.656C17.7563 15.3375 17.2183 15.1666 16.6667 15.1667ZM16.6667 20.5V23.1667C17.0203 23.1667 17.3595 23.0262 17.6095 22.7761C17.8596 22.5261 18 22.187 18 21.8333C18 21.4797 17.8596 21.1406 17.6095 20.8905C17.3595 20.6405 17.0203 20.5 16.6667 20.5Z" fill="white"/>
</svg>
