<svg width="24" height="24" viewBox="0 0 24 24" fill="none" xmlns="http://www.w3.org/2000/svg">
<path fill-rule="evenodd" clip-rule="evenodd" d="M3 12C3 13.1819 3.23279 14.3522 3.68508 15.4442C4.13738 16.5361 4.80031 17.5282 5.63604 18.364C6.47177 19.1997 7.46392 19.8626 8.55585 20.3149C9.64778 20.7672 10.8181 21 12 21C13.1819 21 14.3522 20.7672 15.4442 20.3149C16.5361 19.8626 17.5282 19.1997 18.364 18.364C19.1997 17.5282 19.8626 16.5361 20.3149 15.4442C20.7672 14.3522 21 13.1819 21 12C21 9.61305 20.0518 7.32387 18.364 5.63604C16.6761 3.94821 14.3869 3 12 3C9.61305 3 7.32387 3.94821 5.63604 5.63604C3.94821 7.32387 3 9.61305 3 12Z" fill="#0C0C4F"/>
<path fill-rule="evenodd" clip-rule="evenodd" d="M8.02903 9.87955L8.25103 9.19355C8.27352 9.12503 8.31215 9.06292 8.36366 9.01245C8.41517 8.96198 8.47806 8.92463 8.54703 8.90355L9.23703 8.69055C9.25789 8.68414 9.27614 8.67121 9.2891 8.65366C9.30207 8.63611 9.30907 8.61487 9.30907 8.59305C9.30907 8.57123 9.30207 8.54999 9.2891 8.53244C9.27614 8.51489 9.25789 8.50196 9.23703 8.49555L8.55103 8.27355C8.48262 8.25116 8.42058 8.21268 8.37012 8.16135C8.31966 8.11002 8.28225 8.04733 8.26103 7.97855L8.04803 7.28855C8.01903 7.19355 7.88403 7.19255 7.85403 7.28755L7.63203 7.97355C7.60967 8.04225 7.57111 8.10456 7.51959 8.15522C7.46806 8.20587 7.4051 8.24337 7.33603 8.26455L6.64603 8.47655C6.62514 8.48285 6.60682 8.49569 6.59376 8.51317C6.58071 8.53065 6.5736 8.55186 6.57349 8.57368C6.57338 8.5955 6.58026 8.61678 6.59314 8.6344C6.60602 8.65201 6.6242 8.66503 6.64503 8.67155L7.33103 8.89355C7.39992 8.91577 7.46243 8.95427 7.51327 9.0058C7.5641 9.05733 7.60175 9.12036 7.62303 9.18955L7.83403 9.87855C7.86403 9.97355 7.99803 9.97455 8.02903 9.87955Z" fill="#FAFAFA"/>
<path fill-rule="evenodd" clip-rule="evenodd" d="M18.931 9.4813C18.647 9.1633 18.203 8.9843 17.771 8.9113C17.3334 8.84217 16.8873 8.84622 16.451 8.9233C15.583 9.0703 14.794 9.4303 14.105 9.8733C13.748 10.0913 13.443 10.3433 13.127 10.6003C12.975 10.7303 12.837 10.8683 12.692 11.0043L12.297 11.3973C11.8989 11.8181 11.4783 12.2171 11.037 12.5923C10.626 12.9293 10.242 13.1853 9.86298 13.3633C9.48498 13.5433 9.07998 13.6493 8.55298 13.6663C8.02998 13.6843 7.41098 13.5903 6.74998 13.4343C6.08498 13.2793 5.38598 13.0583 4.60498 12.8683C4.87836 13.6156 5.2887 14.3054 5.81498 14.9023C6.34698 15.5023 7.01298 16.0483 7.86698 16.4083C8.77892 16.7939 9.78527 16.8984 10.757 16.7083C11.75 16.5173 12.621 16.0583 13.325 15.5273C13.9895 15.0159 14.581 14.416 15.083 13.7443C15.216 13.5683 15.286 13.4703 15.382 13.3333L15.648 12.9393C15.832 12.6953 16.001 12.4193 16.183 12.1773C16.542 11.6723 16.895 11.1673 17.306 10.7023C17.512 10.4663 17.73 10.2413 17.987 10.0243C18.116 9.9183 18.255 9.8143 18.408 9.7213C18.564 9.6213 18.728 9.5413 18.931 9.4813Z" fill="url(#paint0_linear_2504_4743)"/>
<path fill-rule="evenodd" clip-rule="evenodd" d="M18.931 9.48006C18.626 8.71006 18.058 8.06106 17.296 7.58206C16.4413 7.06358 15.4242 6.88211 14.443 7.07306C13.928 7.17306 13.429 7.36506 12.991 7.62006C12.5677 7.86799 12.1765 8.16689 11.826 8.51006C11.6615 8.67356 11.5034 8.84335 11.352 9.01906L10.957 9.52206L10.347 10.3321C9.57098 11.3741 8.73398 12.5951 7.36098 12.9571C6.01298 13.3121 5.42798 12.9971 4.60498 12.8671C4.75498 13.2561 4.94198 13.6331 5.19498 13.9651C5.44298 14.3031 5.73498 14.6211 6.09998 14.8941C6.28398 15.0241 6.47798 15.1541 6.69398 15.2641C6.90798 15.3691 7.13998 15.4631 7.38698 15.5331C7.90137 15.6748 8.43892 15.7122 8.96798 15.6431C9.48927 15.5702 9.99502 15.4121 10.465 15.1751C10.8921 14.9603 11.2933 14.6976 11.661 14.3921C12.307 13.8472 12.8783 13.2195 13.36 12.5251C13.5893 12.2004 13.8006 11.8724 13.994 11.5411L14.221 11.1491C14.291 11.0331 14.3616 10.9204 14.433 10.8111C14.722 10.3791 15.004 10.0331 15.347 9.77206C15.686 9.50606 16.157 9.30906 16.786 9.26206C17.413 9.21606 18.136 9.30206 18.931 9.48106" fill="#FAFAFA"/>
<path fill-rule="evenodd" clip-rule="evenodd" d="M15.541 15.8846C15.5367 16.022 15.5601 16.1588 15.6097 16.287C15.6593 16.4151 15.7341 16.532 15.8298 16.6307C15.9254 16.7294 16.04 16.8078 16.1665 16.8614C16.2931 16.915 16.4291 16.9426 16.5665 16.9426C16.704 16.9426 16.84 16.915 16.9665 16.8614C17.0931 16.8078 17.2076 16.7294 17.3033 16.6307C17.3989 16.532 17.4738 16.4151 17.5234 16.287C17.573 16.1588 17.5963 16.022 17.592 15.8846C17.5837 15.6182 17.472 15.3654 17.2806 15.1799C17.0892 14.9944 16.8331 14.8906 16.5665 14.8906C16.3 14.8906 16.0439 14.9944 15.8524 15.1799C15.661 15.3654 15.5493 15.6182 15.541 15.8846Z" fill="#EC796B"/>
<defs>
<linearGradient id="paint0_linear_2504_4743" x1="20.903" y1="3.7923" x2="-13.607" y2="13.7423" gradientUnits="userSpaceOnUse">
<stop stop-color="#EC796B"/>
<stop offset="1" stop-color="#D672EF"/>
</linearGradient>
</defs>
</svg>
