<svg width="38" height="38" viewBox="0 0 38 38" fill="none" xmlns="http://www.w3.org/2000/svg">
<rect width="38" height="38" rx="19" fill="#DCCCFF"/>
<path d="M18.9976 6L18.8229 6.59246V23.7842L18.9976 23.9582L26.9952 19.2411L18.9976 6Z" fill="#343434"/>
<path d="M18.9976 6L11 19.2411L18.9976 23.9582L18.9977 15.6139L18.9976 6Z" fill="#8C8C8C"/>
<path d="M18.9976 25.4692L18.8992 25.589V31.7131L18.9976 32L27 20.7545L18.9976 25.4692Z" fill="#3C3C3B"/>
<path d="M18.9976 32V25.4692L11 20.7544L18.9976 32Z" fill="#8C8C8C"/>
<path d="M18.9976 23.9582L26.9952 19.2411L18.9977 15.6139L18.9976 23.9582Z" fill="#141414"/>
<path d="M11 19.2411L18.9976 23.9582L18.9977 15.6139L11 19.2411Z" fill="#393939"/>
</svg>
