<svg width="38" height="38" viewBox="0 0 38 38" fill="none" xmlns="http://www.w3.org/2000/svg">
<path d="M19 38C29.4934 38 38 29.4934 38 19C38 8.50659 29.4934 0 19 0C8.50659 0 0 8.50659 0 19C0 29.4934 8.50659 38 19 38Z" fill="#26A17B"/>
<path fill-rule="evenodd" clip-rule="evenodd" d="M21.2821 20.6429V20.6405C21.1515 20.65 20.4781 20.6904 18.976 20.6904C17.7766 20.6904 16.9323 20.6548 16.6354 20.6405V20.6441C12.0184 20.441 8.57227 19.6371 8.57227 18.6752C8.57227 17.7133 12.0184 16.9106 16.6354 16.704V19.8437C16.937 19.8651 17.8015 19.9161 18.9961 19.9161C20.4295 19.9161 21.1479 19.8568 21.2821 19.8449V16.7063C25.8896 16.9118 29.3274 17.7157 29.3274 18.6752C29.3274 19.6371 25.8896 20.4386 21.2821 20.6429ZM21.2821 16.3798V13.5701H27.7112V9.28564H10.2063V13.5701H16.6354V16.3786C11.4104 16.6185 7.48096 17.654 7.48096 18.8937C7.48096 20.1335 11.4104 21.1678 16.6354 21.4088V30.4125H21.2821V21.4065C26.4988 21.1666 30.4187 20.1323 30.4187 18.8937C30.4187 17.6551 26.4988 16.6208 21.2821 16.3798Z" fill="white"/>
</svg>
