<svg width="38" height="38" viewBox="0 0 38 38" fill="none" xmlns="http://www.w3.org/2000/svg">
<g clip-path="url(#clip0_189_1878)">
<path d="M19 38C29.4934 38 38 29.4934 38 19C38 8.50659 29.4934 0 19 0C8.50659 0 0 8.50659 0 19C0 29.4934 8.50659 38 19 38Z" fill="#3E73C4"/>
<path d="M23.7763 21.5221C23.7763 18.9998 22.2563 18.1353 19.2163 17.7743C17.0456 17.4857 16.6122 16.9098 16.6122 15.9004C16.6122 14.8911 17.3365 14.2427 18.7829 14.2427C20.0856 14.2427 20.81 14.6749 21.171 15.7567C21.2089 15.8612 21.2777 15.9515 21.3683 16.0158C21.4589 16.0801 21.567 16.1153 21.678 16.1166H22.8358C22.9027 16.1183 22.9693 16.1065 23.0314 16.0818C23.0936 16.0571 23.1501 16.0201 23.1975 15.9729C23.2449 15.9257 23.2823 15.8693 23.3073 15.8073C23.3323 15.7452 23.3444 15.6788 23.3429 15.6119V15.5406C23.2014 14.7579 22.8054 14.0439 22.2164 13.5094C21.6273 12.9749 20.8783 12.65 20.0856 12.5849V10.8559C20.0856 10.5674 19.8683 10.3512 19.5073 10.2788H18.4207C18.1322 10.2788 17.9148 10.4949 17.8424 10.8559V12.5137C15.6705 12.8011 14.2965 14.2427 14.2965 16.0453C14.2965 18.4227 15.7429 19.3596 18.7829 19.7206C20.81 20.0804 21.4607 20.5139 21.4607 21.6669C21.4607 22.8188 20.4478 23.6121 19.0727 23.6121C17.1905 23.6121 16.5397 22.82 16.3224 21.7382C16.2512 21.4508 16.0327 21.3059 15.8153 21.3059H14.5851C14.5183 21.3043 14.4519 21.3162 14.3899 21.341C14.3278 21.3658 14.2715 21.4029 14.2242 21.4501C14.1769 21.4972 14.1397 21.5535 14.1148 21.6155C14.0898 21.6775 14.0778 21.7438 14.0792 21.8106V21.8819C14.3678 23.6845 15.5268 24.9812 17.9148 25.3422V27.0724C17.9148 27.3598 18.1322 27.5771 18.4932 27.6484H19.5797C19.8683 27.6484 20.0856 27.4322 20.158 27.0724V25.3411C22.33 24.9812 23.7763 23.4672 23.7763 21.5209V21.5221Z" fill="white"/>
<path d="M15.3094 29.0902C9.66403 27.0714 6.76891 20.8014 8.86841 15.2522C9.95378 12.2241 12.3418 9.91919 15.3094 8.83737C15.5992 8.69369 15.7428 8.47756 15.7428 8.11656V7.10719C15.7428 6.81981 15.5992 6.60369 15.3094 6.53125C15.237 6.53125 15.0921 6.53125 15.0197 6.6025C13.3909 7.11113 11.8789 7.93693 10.5706 9.03233C9.26232 10.1277 8.18364 11.4711 7.39667 12.9851C6.60971 14.4991 6.13 16.1538 5.98517 17.854C5.84034 19.5541 6.03324 21.2661 6.55278 22.8914C7.85428 26.9289 10.9667 30.0283 15.0197 31.3251C15.3094 31.4688 15.5992 31.3251 15.6704 31.0365C15.7428 30.9653 15.7428 30.8916 15.7428 30.7479V29.7386C15.7428 29.5224 15.5267 29.2351 15.3094 29.0902ZM22.9807 6.60369C22.6909 6.45881 22.4012 6.60369 22.3299 6.89106C22.2575 6.9635 22.2575 7.03594 22.2575 7.17963V8.189C22.2575 8.47756 22.4736 8.76494 22.6909 8.90981C28.3363 10.9286 31.2314 17.1986 29.1319 22.7477C28.0465 25.7759 25.6585 28.0808 22.6909 29.1626C22.4012 29.3063 22.2575 29.5224 22.2575 29.8834V30.8928C22.2575 31.1802 22.4012 31.3963 22.6909 31.4688C22.7633 31.4688 22.9082 31.4688 22.9807 31.3975C24.6094 30.8889 26.1214 30.0631 27.4297 28.9677C28.738 27.8723 29.8167 26.5289 30.6036 25.0149C31.3906 23.5009 31.8703 21.8462 32.0151 20.146C32.16 18.4459 31.9671 16.7339 31.4475 15.1086C30.146 10.9998 26.9612 7.90044 22.9807 6.60369Z" fill="white"/>
</g>
<defs>
<clipPath id="clip0_189_1878">
<rect width="38" height="38" fill="white"/>
</clipPath>
</defs>
</svg>
